<svg width="172" height="42" viewBox="0 0 172 42" fill="none" xmlns="http://www.w3.org/2000/svg">
<path d="M0.310013 41.31V0.304993H5.32501V23.61L17.125 11.515H23.615L12.405 22.43L24.795 41.31H18.6L8.86501 25.97L5.32501 29.51V41.31H0.310013ZM49.28 41.31V36.885C46.92 40.13 43.97 41.9 39.84 41.9C38.07 41.9 36.595 41.605 35.12 41.015C33.35 40.13 32.465 39.245 31.58 38.36L30.105 34.525L29.81 29.805V11.515H34.825V28.035L35.12 33.345C35.415 34.525 36.005 35.705 37.185 36.59C38.07 37.18 39.25 37.475 41.02 37.475C42.495 37.475 43.97 37.18 45.15 36.295C46.33 35.705 47.51 34.525 47.805 33.345C48.395 31.87 48.69 30.1 48.69 27.445V11.515H53.705V41.31H49.28ZM62.555 41.31V0.304993H67.57V41.31H62.555ZM87.335 36.59L88.22 41.31L84.385 41.605C82.615 41.605 81.14 41.31 80.255 40.72C79.075 40.13 78.485 39.54 77.895 38.36C77.6 37.475 77.305 35.705 77.305 32.46V15.35H73.765V11.515H77.305V4.13999L82.32 1.18999V11.515H87.335V15.35H82.32V32.755L82.615 35.705L83.5 36.59L85.27 36.885L87.335 36.59ZM112.705 41.31V36.885C110.64 40.13 107.395 41.9 103.56 41.9C101.79 41.9 100.02 41.605 98.545 41.015L95.005 38.36L93.53 34.525L93.235 29.805V11.515H98.25V28.035L98.545 33.345C98.84 34.525 99.725 35.705 100.61 36.59C101.79 37.18 102.97 37.475 104.445 37.475C105.92 37.475 107.395 37.18 108.575 36.295C110.05 35.705 110.935 34.525 111.525 33.345C112.115 31.87 112.41 30.1 112.41 27.445V11.515H117.425V41.31H112.705ZM126.275 41.31V11.515H130.7V15.94C131.88 13.875 133.06 12.695 133.945 11.81C134.83 11.22 136.01 10.925 137.19 10.925C138.96 10.925 140.435 11.515 142.205 12.4L140.73 17.12C139.255 16.53 138.075 15.94 136.895 15.94C135.715 15.94 134.83 16.53 133.945 17.12C133.06 17.71 132.47 18.595 132.175 19.775C131.585 21.545 131.29 23.61 131.29 25.675V41.31H126.275ZM166.69 31.575L171.705 32.46C171.115 35.41 169.345 37.77 167.28 39.245C164.92 41.015 162.265 41.9 158.725 41.9C154.3 41.9 151.055 40.72 148.4 37.77C146.04 35.115 144.565 31.575 144.565 26.56C144.565 21.545 146.04 17.71 148.4 15.055C151.055 12.4 154.3 10.925 158.43 10.925C162.56 10.925 165.805 12.105 168.165 15.055C170.82 17.71 172 21.545 172 26.265V27.74H149.875C149.875 30.985 151.055 33.345 152.53 35.115C154.3 36.885 156.365 37.77 158.725 37.77C160.495 37.77 162.265 37.18 163.445 36.295C164.92 35.41 165.805 33.935 166.69 31.575ZM150.17 23.61H166.69C166.395 20.955 165.805 19.185 164.92 18.005C163.15 15.94 161.085 15.055 158.43 15.055C156.365 15.055 154.3 15.645 152.825 17.415C151.055 18.89 150.17 20.955 150.17 23.61Z" fill="#404040"/>
</svg>
